 http://img198.imageshack.us/img198/7821/fastfive2011q.jpg

Country.......: USA
Genre.........: Action, Crime, Drama, Thriller
Date release..: 15.04.2011 [World]
Director......: Justin Lin
Writers.......: Chris Morgan, Gary Scott Thompson
Duration......: 125 min.
More..........: http://www.imdb.com/title/tt1596343
Trailer.......: http://www.imdb.com/video/imdb/vi1723702553
Trailer.......:

Pilot :
Dominic and his crew find themselves on the wrong side of the law once again as they try to switch lanes between a ruthless drug lord and a relentless federal agent. 

Cats :
Vin Diesel   	 ...  	Dominic Toretto
Paul Walker 	... 	Brian O Conner
Jordana Brewster 	... 	Mia Toretto
Tyrese Gibson 	... 	Roman Pearce
Ludacris 	... 	Tej Parker (as Chris Ludacris Bridges)
Elsa Pataky 	... 	Elena Neves
Gal Gadot 	... 	Gisele Harabo
Tego Calderon 	... 	Tego Leo
Don Omar 	... 	Rico Santos
Matt Schulze 	... 	Vince
Dwayne Johnson 	... 	Luke Hobbs
Sung Kang 	... 	Han Lue
Joaquim de Almeida 	... 	Hernan Reyes
Michael Irby 	... 	Zizi
Fernando Chien 	... 	Wilkes 

Data Technical :
!!! SAMPLE !!!
Audio.....: English
Subtitles.: Polish .txt
Format                           : AVI
Format/Info                      : Audio Video Interleave
File size                        : 1.32 GiB
Duration                         : 2h 5mn
Overall bit rate                 : 1 507 Kbps
Writing application              : VirtualDubMod 1.5.10.2 (build 2540/release)
Writing library                  : VirtualDubMod build 2540/release
Video
ID                               : 0
Format                           : MPEG-4 Visual
Format profile                   : Advanced Simple@L5
Format settings, BVOP            : Yes
Format settings, QPel            : No
Format settings, GMC             : No warppoints
Format settings, Matrix          : Default (H.263)
Muxing mode                      : Packed bitstream
Codec ID                         : XVID
Codec ID/Hint                    : XviD
Duration                         : 2h 5mn
Bit rate                         : 1 113 Kbps
Width                            : 640 pixels
Height                           : 272 pixels
Display aspect ratio             : 2.35:1
Frame rate                       : 25.000 fps
Color space                      : YUV
Chroma subsampling               : 4:2:0
Bit depth                        : 8 bits
Scan type                        : Progressive
Bits/(Pixel*Frame)               : 0.256
Stream size                      : 995 MiB (74%)
Writing library                  : XviD 1.1.0 (UTC 2005-11-22)
Audio
ID                               : 1
Format                           : AC-3
Format/Info                      : Audio Coding 3
Mode extension                   : CM (complete main)
Codec ID                         : 2000
Duration                         : 2h 5mn
Bit rate mode                    : Constant
Bit rate                         : 384 Kbps
Channel(s)                       : 6 channels
Channel positions                : Front: L C R, Side: L R, LFE
Sampling rate                    : 48.0 KHz
Bit depth                        : 16 bits
Stream size                      : 343 MiB (25%)
Alignment                        : Split accross interleaves
Interleave, duration             : 40 ms (1.00 video frame)
Interleave, preload duration     : 500 ms

Screen : 
http://img808.imageshack.us/img808/7633/fastfive2011s1.jpg 
http://img535.imageshack.us/img535/8995/fastfive2011s2.jpg 
http://img804.imageshack.us/img804/8717/fastfive2011s3.jpg 
http://img11.imageshack.us/img11/1455/fastfive2011s4.jpg 
http://img714.imageshack.us/img714/745/fastfive2011s5.jpg